<?xml version="1.0" encoding="UTF-8"?><svg id="Layer_2" xmlns="http://www.w3.org/2000/svg" viewBox="0 0 332.5 30.76"><defs><style>.cls-1{fill:#60dc40;}</style></defs><g id="_ëîé_1"><g><path class="cls-1" d="M159.31,12.9h-3.97v-3.97h3.97v3.97Zm0-8.43h-3.97v3.97h3.97v-3.97ZM159.31,0h-3.97V3.97h3.97V0Zm0,17.86h-3.97v3.97h3.97v-3.97Zm0,4.47h-3.97v3.97h3.97v-3.97Zm0,4.47h-3.97v3.97h3.97v-3.97Zm4.47-4.47h-3.97v3.97h3.97v-3.97Zm4.47-4.47h-3.97v3.97h3.97v-3.97Zm4.47,4.47h-3.97v3.97h3.97v-3.97Zm-13.4-8.93h-3.97v3.97h3.97v-3.97Zm17.86-4.47h-3.97v3.97h3.97v-3.97Zm0-4.47h-3.97v3.97h3.97v-3.97ZM177.17,0h-3.97V3.97h3.97V0Zm0,17.86h-3.97v3.97h3.97v-3.97Zm0,4.47h-3.97v3.97h3.97v-3.97Zm0,4.47h-3.97v3.97h3.97v-3.97Zm0-13.4h-3.97v3.97h3.97v-3.97Z"/><path class="cls-1" d="M194.84,17.36h-3.97v-3.97h3.97v3.97Zm4.47-3.97h-3.97v3.97h3.97v-3.97Zm4.47,0h-3.97v3.97h3.97v-3.97Zm-8.93,13.4h-3.97v3.97h3.97v-3.97Zm-4.47,0h-3.97v3.97h3.97v-3.97Zm0-17.86h-3.97v3.97h3.97v-3.97Zm0-4.47h-3.97v3.97h3.97v-3.97Zm4.47-4.47h-3.97V3.97h3.97V0Zm-4.47,0h-3.97V3.97h3.97V0Zm8.93,26.79h-3.97v3.97h3.97v-3.97Zm0-26.79h-3.97V3.97h3.97V0Zm4.47,26.79h-3.97v3.97h3.97v-3.97Zm0-26.79h-3.97V3.97h3.97V0Zm4.47,26.79h-3.97v3.97h3.97v-3.97Zm0-26.79h-3.97V3.97h3.97V0Zm-17.86,17.86h-3.97v3.97h3.97v-3.97Zm0,4.47h-3.97v3.97h3.97v-3.97Zm0,4.47h-3.97v3.97h3.97v-3.97Zm0-13.4h-3.97v3.97h3.97v-3.97Z"/><path class="cls-1" d="M225.91,17.36h-3.97v-3.97h3.97v3.97Zm4.47-3.97h-3.97v3.97h3.97v-3.97Zm4.47,0h-3.97v3.97h3.97v-3.97Zm-8.93,13.4h-3.97v3.97h3.97v-3.97Zm-4.47,0h-3.97v3.97h3.97v-3.97Zm0-17.86h-3.97v3.97h3.97v-3.97Zm0-4.47h-3.97v3.97h3.97v-3.97Zm4.47-4.47h-3.97V3.97h3.97V0Zm-4.47,0h-3.97V3.97h3.97V0Zm8.93,26.79h-3.97v3.97h3.97v-3.97Zm0-26.79h-3.97V3.97h3.97V0Zm4.47,26.79h-3.97v3.97h3.97v-3.97Zm0-26.79h-3.97V3.97h3.97V0Zm4.47,26.79h-3.97v3.97h3.97v-3.97Zm0-26.79h-3.97V3.97h3.97V0Zm-17.86,17.86h-3.97v3.97h3.97v-3.97Zm0,4.47h-3.97v3.97h3.97v-3.97Zm0,4.47h-3.97v3.97h3.97v-3.97Zm0-13.4h-3.97v3.97h3.97v-3.97Z"/><path class="cls-1" d="M288.04,17.36h-3.97v-3.97h3.97v3.97Zm4.47-3.97h-3.97v3.97h3.97v-3.97Zm4.47,0h-3.97v3.97h3.97v-3.97Zm-8.93,13.4h-3.97v3.97h3.97v-3.97Zm-4.47,0h-3.97v3.97h3.97v-3.97Zm0-17.86h-3.97v3.97h3.97v-3.97Zm0-4.47h-3.97v3.97h3.97v-3.97Zm4.47-4.47h-3.97V3.97h3.97V0Zm-4.47,0h-3.97V3.97h3.97V0Zm8.93,26.79h-3.97v3.97h3.97v-3.97Zm0-26.79h-3.97V3.97h3.97V0Zm4.47,26.79h-3.97v3.97h3.97v-3.97Zm0-26.79h-3.97V3.97h3.97V0Zm4.47,26.79h-3.97v3.97h3.97v-3.97Zm0-26.79h-3.97V3.97h3.97V0Zm-17.86,17.86h-3.97v3.97h3.97v-3.97Zm0,4.47h-3.97v3.97h3.97v-3.97Zm0,4.47h-3.97v3.97h3.97v-3.97Zm0-13.4h-3.97v3.97h3.97v-3.97Z"/><path class="cls-1" d="M101.64,17.36h-3.97v-3.97h3.97v3.97Zm4.47-3.97h-3.97v3.97h3.97v-3.97Zm4.47,0h-3.97v3.97h3.97v-3.97Zm-8.93,13.4h-3.97v3.97h3.97v-3.97Zm-4.47,0h-3.97v3.97h3.97v-3.97Zm0-17.86h-3.97v3.97h3.97v-3.97Zm0-4.47h-3.97v3.97h3.97v-3.97Zm4.47-4.47h-3.97V3.97h3.97V0Zm-4.47,0h-3.97V3.97h3.97V0Zm8.93,26.79h-3.97v3.97h3.97v-3.97Zm0-26.79h-3.97V3.97h3.97V0Zm4.47,26.79h-3.97v3.97h3.97v-3.97Zm0-26.79h-3.97V3.97h3.97V0Zm4.47,26.79h-3.97v3.97h3.97v-3.97Zm0-26.79h-3.97V3.97h3.97V0Zm-17.86,17.86h-3.97v3.97h3.97v-3.97Zm0,4.47h-3.97v3.97h3.97v-3.97Zm0,4.47h-3.97v3.97h3.97v-3.97Zm0-13.4h-3.97v3.97h3.97v-3.97Z"/><path class="cls-1" d="M3.97,12.9H0v-3.97H3.97v3.97Zm0-8.43H0v3.97H3.97v-3.97Zm0,13.4H0v3.97H3.97v-3.97Zm0,4.47H0v3.97H3.97v-3.97Zm0,4.47H0v3.97H3.97v-3.97Zm0-13.4H0v3.97H3.97v-3.97ZM3.97,0H0V3.97H3.97V0Zm4.46,4.46h-3.97v3.97h3.97v-3.97Zm4.46,4.47h-3.97v3.97h3.97v-3.97Zm4.47-4.47h-3.97v3.97h3.97v-3.97Zm4.47,4.47h-3.97v3.97h3.97v-3.97Zm0-4.47h-3.97v3.97h3.97v-3.97Zm0,13.4h-3.97v3.97h3.97v-3.97Zm0,4.47h-3.97v3.97h3.97v-3.97Zm0,4.47h-3.97v3.97h3.97v-3.97Zm0-13.4h-3.97v3.97h3.97v-3.97ZM21.83,0h-3.97V3.97h3.97V0Z"/><path class="cls-1" d="M66.1,12.9h-3.97v-3.97h3.97v3.97Zm0-8.43h-3.97v3.97h3.97v-3.97Zm0,13.4h-3.97v3.97h3.97v-3.97Zm0,4.47h-3.97v3.97h3.97v-3.97Zm0,4.47h-3.97v3.97h3.97v-3.97Zm0-13.4h-3.97v3.97h3.97v-3.97ZM66.1,0h-3.97V3.97h3.97V0Zm4.47,8.93h-3.97v3.97h3.97v-3.97Zm4.47,4.47h-3.97v3.97h3.97v-3.97Zm4.47,4.47h-3.97v3.97h3.97v-3.97Zm4.47-8.93h-3.97v3.97h3.97v-3.97Zm0-4.47h-3.97v3.97h3.97v-3.97Zm0,13.4h-3.97v3.97h3.97v-3.97Zm0,4.47h-3.97v3.97h3.97v-3.97Zm0,4.47h-3.97v3.97h3.97v-3.97Zm0-13.4h-3.97v3.97h3.97v-3.97ZM83.96,0h-3.97V3.97h3.97V0Z"/><path class="cls-1" d="M43.97,12.9h-3.97v-3.97h3.97v3.97Zm0-8.43h-3.97v3.97h3.97v-3.97Zm0,13.4h-3.97v3.97h3.97v-3.97Zm0,4.47h-3.97v3.97h3.97v-3.97Zm0,4.47h-3.97v3.97h3.97v-3.97Zm0-13.4h-3.97v3.97h3.97v-3.97ZM39.5,0h-3.97V3.97h3.97V0ZM43.97,0h-3.97V3.97h3.97V0ZM48.43,0h-3.97V3.97h3.97V0ZM35.04,0h-3.97V3.97h3.97V0Zm4.47,26.79h-3.97v3.97h3.97v-3.97Zm4.47,0h-3.97v3.97h3.97v-3.97Zm4.46,0h-3.97v3.97h3.97v-3.97ZM52.9,0h-3.97V3.97h3.97V0Zm0,26.79h-3.97v3.97h3.97v-3.97Zm-17.86,0h-3.97v3.97h3.97v-3.97Z"/><path class="cls-1" d="M256.97,3.97h-3.97V0h3.97V3.97ZM261.44,0h-3.97V3.97h3.97V0ZM265.9,0h-3.97V3.97h3.97V0Zm-8.93,13.39h-3.97v3.97h3.97v-3.97Zm4.46,0h-3.97v3.97h3.97v-3.97Zm4.47,0h-3.97v3.97h3.97v-3.97Zm4.47-4.47h-3.97v3.97h3.97v-3.97Zm0-4.47h-3.97v3.97h3.97v-3.97Zm-17.86,4.47h-3.97v3.97h3.97v-3.97Zm0-4.47h-3.97v3.97h3.97v-3.97ZM252.51,0h-3.97V3.97h3.97V0Zm0,17.86h-3.97v3.97h3.97v-3.97Zm0,4.47h-3.97v3.97h3.97v-3.97Zm0,0h-3.97v3.97h3.97v-3.97Zm0,4.47h-3.97v3.97h3.97v-3.97Zm0-13.4h-3.97v3.97h3.97v-3.97Z"/><path class="cls-1" d="M132.7,3.97h-3.97V0h3.97V3.97ZM137.17,0h-3.97V3.97h3.97V0ZM141.63,0h-3.97V3.97h3.97V0Zm-8.93,13.4h-3.97v3.97h3.97v-3.97Zm4.46,0h-3.97v3.97h3.97v-3.97Zm4.47,0h-3.97v3.97h3.97v-3.97Zm-8.93,13.4h-3.97v3.97h3.97v-3.97Zm4.46,0h-3.97v3.97h3.97v-3.97Zm4.47,0h-3.97v3.97h3.97v-3.97Zm4.47-8.93h-3.97v3.97h3.97v-3.97Zm0,4.47h-3.97v3.97h3.97v-3.97Zm-17.86-17.86h-3.97v3.97h3.97v-3.97Zm17.86,0h-3.97v3.97h3.97v-3.97Zm-17.86,17.86h-3.97v3.97h3.97v-3.97Zm0-13.4h-3.97v3.97h3.97v-3.97Z"/><path class="cls-1" d="M319.11,3.97h-3.97V0h3.97V3.97ZM323.57,0h-3.97V3.97h3.97V0ZM328.04,0h-3.97V3.97h3.97V0Zm-8.93,13.39h-3.97v3.97h3.97v-3.97Zm4.47,0h-3.97v3.97h3.97v-3.97Zm4.47,0h-3.97v3.97h3.97v-3.97Zm-8.93,4.47h-3.97v3.97h3.97v-3.97Zm4.47,4.47h-3.97v3.97h3.97v-3.97Zm4.47,4.47h-3.97v3.97h3.97v-3.97Zm4.47,0h-3.97v3.97h3.97v-3.97Zm0-17.86h-3.97v3.97h3.97v-3.97Zm0-4.47h-3.97v3.97h3.97v-3.97Zm-17.86,4.47h-3.97v3.97h3.97v-3.97Zm0-4.47h-3.97v3.97h3.97v-3.97ZM314.64,0h-3.97V3.97h3.97V0Zm0,17.86h-3.97v3.97h3.97v-3.97Zm0,4.47h-3.97v3.97h3.97v-3.97Zm0,0h-3.97v3.97h3.97v-3.97Zm0,4.47h-3.97v3.97h3.97v-3.97Zm0-13.4h-3.97v3.97h3.97v-3.97Z"/></g></g></svg>