<?xml version="1.0" encoding="UTF-8"?><svg id="Layer_2" xmlns="http://www.w3.org/2000/svg" viewBox="0 0 1070.32 1603.99"><defs><style>.cls-1{fill:#010100;}.cls-2{fill:#020202;}.cls-3{fill:#eddb94;}.cls-4{fill:#e6cb7c;}.cls-5{fill:#dfb462;}.cls-6{fill:#deb462;}.cls-7{fill:#e5ca7b;}.cls-8{fill:#faf3d1;}.cls-9{fill:#617d9a;}.cls-10{fill:#e0e3eb;}.cls-11{fill:#4a5f74;}.cls-12{fill:#b6c0d1;}.cls-13{fill:#f3e9a9;}.cls-14{fill:#010000;}.cls-15{fill:#e7cc7c;}.cls-16{fill:#364556;}.cls-17{fill:#b8c1d2;}.cls-18{fill:#020101;}.cls-19{fill:#4a6075;}.cls-20{fill:#d39745;}.cls-21{fill:#94a3bc;}.cls-22{fill:#010101;}.cls-23{fill:#fefefe;}</style></defs><g id="HAND_HOLDING_LAMP"><g><path class="cls-21" d="M237.19,1423.14c0-19.18,0-38.36,.03-57.53,0-.38,.53-.75,.81-1.13,.4-.21,.81-.61,1.21-.61,18.66-.03,37.31-.03,56.1-.03,2.32-3.74,.76-7.73,1.08-11.49,.3-3.42,.06-6.88,.06-10.32v-11.8c0-3.44,.13-6.89-.03-10.32-.18-3.85,.68-7.75-.43-11.42-.54-.41-.91-.94-1.29-.94-18.19-.04-36.39-.04-54.58-.04-.09-.88-.18-1.75-.27-2.63,.68-.56,1.36-1.12,2.04-1.68,18.21-5.28,36.59-3.29,54.99-1.22,1.76,.73,3.19,1.88,4.31,3.42,.94,1.64,1.6,3.39,2.02,5.23,2.65,14.93-1.71,30.47,4.4,48.53,151.37,.01,303.26,.05,455.26-.04,5.79-17.98,1.89-33.89,3.6-49.35,.04-1.79,.08-3.58,.07-5.37-1.03-16.13,1.43-32.46-1.91-49.94-17.32-3.5-34.58-.89-51.62-1.9-78.33,.69-156.64,.71-234.94,.04-20.05,.44-40.1,.51-60.15,0-38.96,.5-77.92,.65-116.86-.04-17.89,.64-35.91-.99-53.32,1.19-7.05,16.88,.95,33.89-6.26,48.98-.94,1.8-2.38,2.41-4.32,1.82,0-19.18,0-38.36,.04-57.53,0-.38,.53-.75,.81-1.13,.4-.21,.81-.61,1.21-.61,18.66-.03,37.31-.03,56.1-.03,2.32-3.74,.76-7.73,1.08-11.49,.3-3.42,.06-6.88,.06-10.32v-11.8c0-3.44,.13-6.89-.03-10.32-.18-3.85,.68-7.75-.43-11.42-.54-.41-.91-.94-1.29-.94-18.19-.04-36.39-.04-54.58-.04-.22-.91-.45-1.82-.67-2.73,.67-.65,1.34-1.31,2-1.97,19.34-4.02,38.63-5.16,57.83,.87,1.4,1.33,2.43,2.9,3.13,4.7,4.04,15.37-.76,31.51,3.48,46.59,13.14,5.54,442.41,6.07,458.22,.53,4.25-15.07,.74-30.98,2.38-46.55,.02-1.91,.03-3.82-.02-5.73-.81-52.19-.36-104.37-.16-156.56,.02-6.4-1.57-14.31,7.14-17.55,6.21,5.85,4.89,13.63,4.92,20.85,.2,41.91,.05,83.81,.13,125.72,.01,6.85-.83,13.85,2.94,21.89,12.98,4.03,26.83,2.81,43.04,.39,2.34-57.56,.02-114.57,1.27-171.51-.77-32.73-.37-65.45-.16-98.17,.04-6.47-1.29-14.11,6.77-17.81,6.39,5.1,5.14,12.45,5.22,19.16,.29,23.69,.02,47.39,.17,71.09,.04,6.3-1.05,12.89,3.61,19.31,13,3.72,26.52,2.01,41.99,.71,3.29-38.12,.35-75.5,1.73-112.75-.62-13.33-.46-26.67-.1-39.99,.17-6.15-.87-13.19,6.34-16.86,6.88,4.76,4.92,12.17,5.47,18.77,.85,10.13-1.62,20.53,2.63,31.65,13.51,3.56,27.36,2.31,42.67,.77,4.32-18.32,1.09-36.43,2.32-54.24-.48-19.44-.49-38.87-.02-58.3,.95-18.61-3.48-37.53,3.12-55.83,.76-.52,1.53-1.04,2.3-1.55,.87,.33,1.74,.67,2.6,.98,4.53,6.02,3.73,13.12,3.78,19.95,.16,23.7-.01,47.41,.11,71.11,.03,5.84-.83,11.92,3.76,18.22,12.78,2.45,26.32,2.19,39.14,.19,5.2-5.93,4.14-12.08,4.18-17.87,.15-24.69-.02-49.38,.11-74.07,.04-6.87-.55-13.9,3.3-20.19,1.21-1.45,2.69-2.54,4.42-3.31,15.71-4.71,32.46,1.19,51.44-5.38,.01-111.76,.06-224.22-.04-336.29-17.84-6.86-34-1.49-49.3-4.93-1.85-.49-3.53-1.33-5.06-2.45-1.37-1.29-2.38-2.83-3.08-4.57-3.55-28.29-.76-56.73-1.65-85.1-.23-7.28,.74-14.69-2.42-22.63-15.2-6.17-31.76-.45-47.37-3.98-1.78-.48-3.39-1.29-4.85-2.38-1.3-1.24-2.27-2.72-2.94-4.38-4.16-16.07,1.36-33.02-3.84-49.48-16.09-4.63-32.44,.11-48.17-3.24-1.72-.51-3.26-1.35-4.65-2.47-1.23-1.28-2.13-2.77-2.75-4.42-3.69-15.73,.9-32.08-3.3-48.62-15.9-5.92-32.85-.03-48.88-3.88-1.74-.56-3.28-1.45-4.65-2.65-1.21-1.38-2.08-2.94-2.66-4.67-3.81-15.67,1.61-32.21-4.27-49.04-35.56-4.09-71.35,1-106.8-2.87-1.82-.57-3.43-1.49-4.87-2.73-1.25-1.44-2.15-3.07-2.73-4.88-3.8-15.34,1.33-31.49-4.85-50.09-111.87-.16-224.35-.06-336.47-.07-6.89,18.33-1.11,35.05-5.16,50.78-.58,1.79-1.52,3.38-2.78,4.78-6.14,4.15-13.2,3.53-20.05,3.57-24.18,.15-48.37,0-72.55,.09-6.35,.02-12.84-.59-19.4,2.89-5.5,15.52,.04,32.2-3.83,47.99-.55,1.74-1.45,3.29-2.64,4.66-9.55,5.66-20.13,2.96-30.3,3.59-7.28,.45-14.73-.87-22.57,2.21-5.84,15.93,.31,33.08-4.11,49.18-.65,1.68-1.64,3.13-2.94,4.37-9.57,5.58-20.12,2.92-30.28,3.55-7.25,.45-14.7-.95-22.25,2.35-5.31,16.21,.45,33.29-3.83,49.46-.66,1.72-1.69,3.17-3.06,4.4-9.7,5.02-20.2,2.59-30.37,3.19-7.23,.43-14.71-1.11-22.69,3.18-4.06,35.21,.94,71.05-2.7,106.58-.52,1.86-1.39,3.53-2.6,5.03-1.51,1.22-3.2,2.07-5.06,2.62-15.38,3.58-31.53-1.41-46.56,3.56-5.1,7.66-3.63,15.76-3.64,23.49-.1,98.71-.03,197.43-.12,296.14,0,8.31,1.15,16.84-2.77,24.76-.66,.7-1.33,1.39-2,2.09-.95-.19-1.89-.37-2.84-.56C0,593.52,0,475.46,.04,357.41c0-.36,.59-.73,1.02-1.22,3.72-.95,7.64-.24,11.52-.37,3.95-.14,7.9-.03,11.85-.03H57.86c.78-.86,1.4-1.21,1.4-1.57,.04-38.52,.04-77.05,.04-115.56,.82-.5,1.6-1.4,2.39-1.41,17.29-.08,34.58-.05,51.86-.08,1.4,0,2.81-.22,3.97-.32,.5-.66,1.04-1.04,1.04-1.42,.04-18.75,.04-37.49,.04-55.95,.77-1.25,1.57-1.61,2.6-1.61,17.78,.02,35.56,0,53.35,.04,1.1,0,1.98-.03,2.64-.81,.24-.4,.68-.79,.68-1.19,.03-18.73,.03-37.45,.03-55.6,.89-1.59,1.72-1.77,2.81-1.76,17.78,.04,35.56,.01,53.35,.07,1.12,0,1.98-.04,2.77-1.24,.95-3.55,.2-7.47,.35-11.35,.15-3.95,.03-7.9,.03-11.85v-10.37c0-3.95-.1-7.91,.03-11.85,.12-3.89-.51-7.81,.34-11.56,.46-.44,.82-1.07,1.17-1.07,38.53-.04,77.06-.04,115.58-.04,.49-.79,1.41-1.57,1.41-2.35,.08-17.29,.05-34.58,.08-51.86,0-1.4,.22-2.81,.31-3.98,.65-.51,1.02-1.06,1.39-1.06C476.04,0,594.58,0,713.08,0c.51,.86,1.39,1.65,1.39,2.44,.08,17.29,.05,34.58,.08,51.86,0,1.4,.24,2.8,.34,3.95,.69,.49,1.07,1,1.45,1,38.5,.04,77,.03,115.18,.03,1.29,.78,1.63,1.59,1.62,2.63-.02,17.78,0,35.56-.05,53.35,0,1.1,.03,1.98,.83,2.63,.4,.23,.8,.66,1.2,.66,18.72,.03,37.45,.03,55.55,.03,1.63,.91,1.79,1.74,1.79,2.84-.05,17.78-.02,35.56-.07,53.35,0,1.12,.04,1.98,1.25,2.75,3.56,.93,7.48,.2,11.36,.34,3.95,.14,7.9,.03,11.85,.03h33.43c.78,.85,1.4,1.2,1.4,1.56,.05,18.76,.04,37.53,.04,56.27,.83,.5,1.62,1.4,2.41,1.4,17.29,.08,34.58,.05,51.86,.08,1.4,0,2.8,.23,3.96,.33,.5,.67,1.03,1.05,1.03,1.43,.04,38.5,.04,77.01,.04,115.24,.76,1.24,1.57,1.6,2.59,1.6,17.78-.02,35.56,0,53.35-.04,1.09,0,1.98,.03,2.65,.8,.24,.4,.69,.79,.69,1.19,.03,118.52,.03,237.03,.03,355.16-.81,1.37-1.63,1.66-2.68,1.66-17.78-.03-35.56,0-53.35-.05-1.1,0-1.98,.04-2.62,.87-.22,.4-.53,.79-.63,1.22-.11,.47-.02,.98-.02,1.48,0,37.54,0,75.08-.02,112.62,0,.44-.23,.89-.35,1.33-.56,1.02-1.4,1.16-2.5,1.16-17.78-.05-35.56-.02-53.35-.08-1.12,0-1.98,.04-2.73,1.27-.9,3.57-.19,7.49-.33,11.37-.14,3.95-.03,7.9-.03,11.85v10.37c0,3.95,.1,7.91-.03,11.85-.13,3.88,.56,7.8-.36,11.54-.48,.43-.84,1.04-1.2,1.04-18.76,.05-37.52,.04-56.25,.04-.51,.85-1.39,1.64-1.4,2.43-.07,36.55-.05,73.1-.09,109.66,0,1.89,.59,3.89-.59,5.64-.4,.3-.78,.83-1.16,.83-18.74,.04-37.49,.03-55.9,.03-1.84,1.14-1.63,2.66-1.63,4.1,0,56.31,0,112.62-.02,168.93,0,1.39-.27,2.77-.38,3.92-.75,.46-1.14,.92-1.53,.92-18.73,.03-37.46,.03-55.88,.03-.65,.65-1.31,1-1.31,1.35-.09,17.76-.14,35.53-.14,53.29,0,.37,.56,.74,.98,1.26,3.7,1.03,7.62,.25,11.5,.4,3.95,.15,7.9,.03,11.85,.03h10.37c3.95,0,7.91-.09,11.85,.03,3.89,.12,7.81-.49,11.44,.3,.55,.51,1.22,.85,1.22,1.18,.05,19.26,.05,38.53,.05,57.79-1.83,.62-3.22,.09-4.18-1.57-5.08-9.19-2.44-19.23-3.09-28.9-.42-6.29,.79-12.79-3.15-19.8-13.45-2.97-27.37-2.14-42.24-.46-4.11,14.6-1.95,28.54-1.65,42.49,16.56,8.59,34.38-.61,49.77,7.02,1.68,.97,2.2,2.37,1.57,4.19-18.25,0-36.51,0-54.76,0-.52,.75-1.5,1.5-1.5,2.26-.09,17.27-.07,34.53-.05,51.8,0,.43,.3,.85,.47,1.28,.36,.33,.71,.95,1.07,.96,18.75,.05,37.49,.04,56.24,.04,.5,.77,1.44,1.55,1.44,2.32,.08,19.24,.07,38.48,.04,57.72,0,.42-.33,.84-.51,1.26-.36,.32-.72,.92-1.08,.92-18.74,.05-37.49,.04-56.22,.04-.5,.81-1.41,1.6-1.41,2.38-.07,35.52-.05,71.04-.08,106.56,0,2.89,.47,5.83-.46,8.65-.38,.35-.74,.96-1.1,.96-19.24,.05-38.48,.04-57.72,.04-.19-.89-.37-1.77-.56-2.66,.63-.65,1.26-1.3,1.88-1.96,15.23-6.64,32.18,.79,49.3-6.01,2.74-35.18,.2-70.84,1.42-106.37,0-1.75,.02-3.5,0-5.25-1.17-16.03,1.68-32.29-2.17-49.52-17.24-3.28-34.42-.82-51.4-1.78-78.08,.68-156.15,.73-234.2,.03-17.61,.84-35.36-1.1-53.04,1.38-7.67,17.02,1.71,35.44-7,51.28-39.52,7.42-79.05,2.3-117.66,2.54-11.09-17.43-2.41-35.44-8.98-52.36-14.41-4.86-29.26-2.4-43.94-1.41-7.37,16.81,.39,33.97-6.32,49.27-.66,.66-1.32,1.3-1.99,1.94-.9-.22-1.8-.45-2.69-.67Z"/><path class="cls-16" d="M714.54,1541.74v59.3c-.94,.19-1.87,.38-2.81,.58-.66-.69-1.31-1.39-1.98-2.07-6.31-14.94,.3-31.39-4.93-46.29-7.4-5.34-15.52-3.79-23.21-3.8-79.27-.12-158.55-.03-237.82-.13-8.28-.01-16.82,1.24-24.6-3.11-.62-.73-1.24-1.46-1.85-2.19,.37-.88,.74-1.76,1.11-2.65,11.74-7.55,24.84-3.2,37.32-4.16,7.31-.56,14.71-.26,22.06,.16,58.56-.58,117.12-.7,175.65,.01,16.94-.96,34.1,1.61,51.71-1.93,3-14.79,2.71-28.63,.24-43.53-17.52-3.99-34.69-1.09-51.63-2.18-58.4,.65-116.77,.7-175.13,.02-17.54,.83-35.21-1-52.42,1.24-5.89,10.06-2.9,20.1-3.64,29.68-.59,7.71,1.01,15.92-5.63,22.09-19.34,6.12-38.63,2.74-58.97,1.66-6.35-21.77-5.05-41.78-1.71-60.28,8.11-6.98,15.71-6.46,23.02-6.47,105.05-.12,210.11-.13,315.16,0,6.86,0,13.88-.25,22.11,5.81,3.26,18.34,6.75,38.27-2.05,58.25Z"/><path class="cls-23" d="M711.57,1601.03h2.96c.35,1.13,.04,2.09-1.06,2.49-.86,.32-1.84,.45-2.77,.45-117.04,.02-234.08,.02-351.13,0-.92,0-1.85-.29-2.59-.41-.48-.43-1.16-.76-1.16-1.09-.05-19.26-.05-38.52-.05-57.78,.94-.2,1.88-.4,2.82-.6,1.49,1.26,2.57,2.82,3.25,4.65,3.87,14.35-1.06,29.54,3.79,43.74,7.27,5.37,15.41,3.76,23.1,3.77,99.09,.12,198.18,.03,297.27,.15,8.71,.01,17.92-1.69,25.57,4.62Z"/><path class="cls-23" d="M240.16,1185.95v2.96c-1.13,.35-2.29,.05-2.45-1.05-.36-2.36-.49-4.78-.49-7.18-.02-56.55-.02-113.11-.02-169.66,.95-.16,1.9-.33,2.85-.49,1.49,1.29,2.55,2.86,3.23,4.71,3.23,19.63,1.24,39.42,1.48,59.13,.36,30.13,.17,60.26,.04,90.4-.03,7.34,.78,14.97-4.63,21.18Z"/><path class="cls-23" d="M355.79,1544.7c-19.18,0-38.36,0-57.53-.04-.38,0-.75-.53-1.13-.81-.21-.4-.61-.81-.61-1.21-.03-38.85-.03-77.69-.03-116.54,.89-.23,1.77-.46,2.65-.69,1.48,1.13,2.54,2.57,3.21,4.3,3.47,27.31,.71,54.75,1.62,82.12,.24,7.26-1.07,14.71,2.63,22.64,10.02,5.11,21.53,1.45,32.42,2.93,6.11,.83,14.38-2.41,16.76,7.29Z"/><path class="cls-23" d="M237.19,1011.02c-19.18,0-38.36,0-57.53-.04-.38,0-.75-.53-1.13-.81-.21-.4-.61-.81-.61-1.21-.03-38.85-.03-77.69-.03-116.54,.9-.18,1.79-.36,2.68-.55,1.47,1.14,2.52,2.58,3.19,4.31,3.47,28.03,.7,56.18,1.6,84.27,.22,6.82-.83,13.82,2.67,20.44,11.02,4.78,22.56,1.52,33.67,2.83,5.84,.69,13.42-1.65,15.49,7.29Z"/><path class="cls-23" d="M118.6,833.13H60.38c-.66-1.25-1.06-1.65-1.06-2.05-.03-38.85-.03-77.69-.03-116.54,.88,.03,1.76,.07,2.64,.09,5.72,5.44,4.61,12.64,4.68,19.37,.23,23.56,0,47.12,.14,70.68,.04,6.25-1.05,12.82,3.62,19.05,14.24,4.8,29.85-.46,44.61,3.54,1.72,.67,3.11,1.75,4.19,3.24-.19,.88-.39,1.75-.58,2.63Z"/><path class="cls-23" d="M177.89,892.43h-58.08c-.72-1.13-1.18-1.52-1.18-1.91-.04-19.13-.03-38.26-.03-57.39,8.86,2,6.73,9.5,7.25,15.27,.99,11.07-.92,22.36,1.77,33.51,11.19,5.37,22.63,1.75,33.53,3.22,6.11,.83,14.33-2.33,16.74,7.29Z"/><path class="cls-23" d="M237.19,1423.14h2.96c17.17-8.26,34.9-4.93,52.55-2.41,2.55,.36,4.02,2.52,3.78,5.38-19,0-38.01,0-57.01,0-1.29,0-1.96-.9-2.29-2.96Z"/><path class="cls-23" d="M0,711.57H2.96c18.05-7.87,36.43-5.26,54.86-1.8,.68,.65,1.35,1.32,2.02,1.99-.18,.93-.37,1.86-.55,2.78-19,0-38.01,0-57.01,0-1.29,0-1.96-.9-2.29-2.96Z"/><path class="cls-23" d="M237.19,1304.55h2.96v2.96c-2.37-.39-2.58-.6-2.96-2.96Z"/><path class="cls-21" d="M830.17,1307.51v-2.96h2.96c-.39,2.36-.6,2.58-2.96,2.96Z"/><path class="cls-3" d="M948.76,714.54v56.33c-7.12,5.93-15.71,4.11-23.86,4.51-8.21,.39-16.57-.98-24.78,1.91-5.44,9.74-2.27,20.19-3.16,30.17-.72,8.06,1.68,16.8-5.22,23.49-6.75,3.78-14.13,4-21.59,3.99-23.22-.03-46.44-.09-69.66,.04-6.32,.04-12.9-.95-19.21,3.34-7,16.13,2.3,35.21-6.81,50.83-7.03,5.48-14.61,5.01-21.96,5.01-105.24,.11-210.47,.11-315.71,0-6.39,0-12.92,.31-18.67-3.41-5.55-6.15-4.32-13.83-4.69-21.13-.52-10.26,1.22-20.71-2.39-31.32-16.48-8.18-35.53,1.15-52.73-7.51-9.06-15.92-.25-34.87-6.67-51.81-16.6-8.13-35.73,1.4-54.03-8.56-7.42-35.66,1.2-73.44-4.75-109.92-17.58-8.03-36.69,1.33-52.55-7.64-6.56-14.9-6.84-281.13-.27-297.49,15.76-9.26,34.79-.02,52.75-7.45,6.08-36.33-2.44-74.11,4.79-110.49,17.93-9.34,36.79-1.21,53.52-7.29,6.96-16.98-1.13-35.23,6.76-52.24,16.12-10.04,35.81-.2,52.99-7.48,5.95-16.4-.66-33.78,4.78-49.91,.88-1.8,2.21-3.16,3.96-4.13,6.05-2.78,12.52-2.49,18.92-2.5,83.88-.08,167.77-.07,251.65,0,6.86,0,13.89-.6,20.19,3.17,.63,.71,1.26,1.44,1.89,2.16-.21,.94-.42,1.88-.62,2.81-6.37,5.1-14.02,4.09-21.33,4.11-41.99,.15-83.99,0-125.98,.13-6.79,.02-13.88-1.21-20.67,3.31-6.08,15.02,1.69,32.25-6.19,48.54-16.07,9.3-35.51,.66-52.68,6.61-6.79,17.33,1.84,36.16-6.82,52.94-16.54,8.9-35.41,.09-52.47,6.77-6.8,16.75,1.63,35.6-6.64,52.23-16.64,9.36-35.61,.25-51.95,6.94-4.36,12.73-5.07,264.98-.85,281.44,9.38,5.5,19.98,2.84,30.12,3.22,21.89,.81,25.88,4.66,26.58,26.18,.32,9.76-1.61,19.75,2.16,29.12,5.06,4.8,11.23,3.85,17.02,3.99q39.07,.92,40.14,40.89c.13,4.91-.16,9.91,2.34,14.39,11.66,5.08,323.7,6.21,341.37,1.12,7-16.37-1.97-35.31,6.85-52.08,16.36-9.15,35.32,0,52.29-6.99,7-16.69-1.61-35.61,6.82-52.11,16.65-9.39,35.68-.1,51.95-7.13,4.59-7.24,3.33-14.82,3.33-22.09,0-60.73,.96-121.47-2.8-182.15-.46-7.33-.74-14.84,1.68-22.05,.73-1.79,1.91-3.2,3.52-4.25,.92,.16,1.84,.32,2.76,.46,1.26,1.35,2.17,2.92,2.74,4.68,3.14,15.33-.72,31.16,2.73,46.61,8.65,6.05,18.2,3.01,27.18,3.82,8.52,.77,17.78-2.01,24.99,5.19,2.61,4.52,2.38,9.53,2.39,14.44,.09,68.61,.08,137.23,.01,205.84,0,4.92,.22,9.91-1.94,14.54-5.19,7.14-13.05,5.45-20.2,5.92-10.18,.68-20.57-1.31-31.39,2.36-5.5,15.64-.51,32.12-3.48,47.87-.4,1.72-1.12,3.3-2.12,4.75-1.31,1.17-2.75,2.15-4.3,2.97Z"/><path class="cls-15" d="M418.05,889.46c118.04,0,236.09,0,354.13-.04,.37,0,.73-.58,1.23-1.01,.99-3.71,.24-7.63,.39-11.51,.15-3.95,.03-7.9,.03-11.85v-33.43c.83-.79,1.18-1.42,1.54-1.42,39.02-.04,78.04-.04,117.06-.04,.25,.49,.51,.99,.76,1.48-.25,.49-.51,.99-.76,1.48-1.11-.34-2.15-.06-2.45,1.03-.37,1.34-.49,2.78-.5,4.18-.03,17.04-.02,34.08-.02,51.13-18.41,8.02-37.43,4.34-56.33,2.96-1.12-.34-2.23-.05-2.45,1.05-.37,1.86-.49,3.79-.49,5.69-.03,36.3-.02,72.6-.02,108.9-17.99,7.78-36.31,5.24-54.67,1.73-1.81-.78-3.15-2.05-4.07-3.79-5.49-16,1.14-33.41-4.85-48.93-8.61-4.84-17.15-3.56-25.4-3.56-99.04-.09-198.08-.03-297.12-.11-8.3,0-16.82,1.1-24.68-2.9-5.82-4.59-5.41-11.25-5.59-17.59-.37-12.31,.21-24.64-.64-36.94-.11-1.77,.14-3.49,.7-5.17,.55-.66,1.12-1.32,1.69-1.98,.84,.21,1.69,.43,2.53,.64Z"/><path d="M355.79,1544.7c.35-1.13,.05-2.18-1.06-2.48-1.36-.36-2.83-.47-4.25-.47-15.3-.03-30.59-.01-45.89-.03-1.41,0-2.82-.2-4-.29-.52-.62-1.1-.98-1.1-1.35-.04-37.99-.04-75.99-.04-113.98,13.61-3.14,27.4-.99,41.1-1.38,135.36-3.85,270.76-2.72,406.16-2.73,8.19,0,16.91-1.93,24.16,4.11,0,37.86,0,75.71-.03,113.57,0,.4-.4,.81-.61,1.21-.37,.28-.75,.81-1.12,.81-18.19,.04-36.38,.04-54.57,.04,0-19.23,0-38.46,0-57.69-.74-.54-1.47-1.51-2.23-1.53-4.43-.15-8.87-.07-13.31-.07-112.92,0-225.84,0-338.76,0-.5,.78-1.42,1.56-1.42,2.34-.08,18.24-.07,36.49-.04,54.73,0,.42,.33,.84,.5,1.26,.36,.32,.72,.92,1.08,.92,19.23,.05,38.46,.04,57.69,.04v2.96c-19.77,7.36-39.53,7.32-59.3,0h-2.96Z"/><path d="M770.87,1188.92c0,18.28,0,36.55,0,54.83-.78,.5-1.53,1.39-2.33,1.44-2.95,.17-5.92,.07-8.89,.07-149.66,0-299.32,0-448.98-.02-3.39,0-6.82,.46-10.02-.37-.47-.44-1.15-.78-1.15-1.11-.05-18.28-.05-36.55-.05-54.83,5.21-5.11,11.9-4.12,18.2-4.12,144.98-.09,289.97-.09,434.95-.02,6.36,0,12.96-.65,18.27,4.14Z"/><path d="M770.87,1307.51c0,18.28,0,36.55,0,54.83-.78,.5-1.53,1.39-2.33,1.44-2.95,.17-5.92,.07-8.89,.07-149.66,0-299.32,0-448.98-.02-3.39,0-6.82,.46-10.02-.37-.47-.44-1.15-.78-1.15-1.11-.05-18.28-.05-36.55-.05-54.83,5.3-4.83,11.91-4.14,18.26-4.14,144.96-.07,289.93-.07,434.89,0,6.36,0,12.95-.65,18.26,4.14Z"/><path class="cls-5" d="M62.26,358.75v-2.96c19.96-7.58,40.01-6.81,60.11-.57,3.8,5.07,3.87,11.06,3.87,16.96,.11,109.3,.22,218.59-.04,327.89,0,2.95-.25,5.9-.94,8.8-.52,1.96-1.4,3.74-2.6,5.36-1.6,1.27-3.42,1.98-5.45,2.17-14.27,.11-28.55,.15-42.83-.38-10.76-.4-16.14-5.97-16.2-16.82-.03-6.4-.11-12.81-.11-19.21,0-99.51-.04-199.02,.07-298.54,0-7.72-1.66-15.93,4.11-22.68Z"/><path d="M358.75,59.3c0-18.27,0-36.55,0-54.82,.77-.5,1.52-1.38,2.33-1.44,2.45-.19,4.93-.07,7.4-.07,111.12,0,222.24,0,333.37,.02,2.9,0,5.84-.42,8.5,.36,.51,.47,1.19,.8,1.19,1.13,.05,18.27,.05,36.55,.05,54.82-6.19,5.75-13.94,4.1-21.15,4.11-81.35,.13-162.69,.15-244.04,.03-22.68-.03-45.34,1.2-68.01,.63-6.86-.17-13.94,.34-19.62-4.77Z"/><path d="M1011.02,358.75c18.27,0,36.55,0,54.82,0,.5,.77,1.38,1.52,1.44,2.33,.19,2.45,.07,4.93,.07,7.4,0,111.12,0,222.24-.02,333.37,0,2.9,.42,5.84-.36,8.49-.47,.51-.8,1.19-1.13,1.19-18.27,.05-36.55,.05-54.82,.05-8.07-17.98-3.86-36.77-2.93-55.18,.29-5.74,1.48-11.64,1.48-17.53,.03-70.12,.27-140.24-.15-210.36-.11-17.66-3.74-35.23-2.56-53.01,.39-5.84-.59-12,4.17-16.74Z"/><path d="M59.3,711.57H2.96c0-116.86,0-233.73,.02-350.59,0-.42,.32-.84,.5-1.26,.36-.32,.72-.92,1.08-.92,18.24-.05,36.49-.04,54.73-.04,2.33,3.62,1.39,7.67,1.4,11.54,.05,109.92,.05,219.83,0,329.75,0,3.86,.95,7.92-1.4,11.53Z"/><path class="cls-10" d="M477.35,1248.21h237.19c7.45,18.92,7.19,37.87,.26,56.85-18.62,2.09-37.3,.89-55.95,.82-60.47-.22-120.95,1.08-181.41-.64-7.68-19-7.42-38.01-.08-57.03Z"/><path class="cls-10" d="M477.35,1366.81h237.19c7.45,18.92,7.19,37.87,.26,56.85-18.62,2.09-37.3,.89-55.95,.82-60.47-.22-120.95,1.08-181.41-.64-7.68-19-7.42-38.01-.08-57.03Z"/><path d="M240.16,1185.95v-174.93c18.32-8.07,37.3-3.37,56.07-2.87,1.86,.7,3.42,1.82,4.69,3.34,3.21,5.35,3.15,11.33,3.16,17.24,.11,46.39,.12,92.79,0,139.18-.01,5.42,.03,10.9-2.65,15.9-.65,.72-1.32,1.43-1.98,2.14h-59.3Z"/><path class="cls-15" d="M773.83,1011.02c-1.13-.35-2.29-.05-2.45,1.05-.36,2.36-.49,4.78-.49,7.18-.02,55.57-.02,111.13-.02,166.7-19.08,2.3-38.16,2.53-57.23-.12-4.55-6.02-3.83-13.12-3.85-19.95-.12-45.41-.11-90.81-.01-136.22,.02-7.35-.38-14.87,5.44-23.57,18.66-3.32,38.62-6.78,58.62,1.98,.75,.66,1,1.32,.75,1.98-.25,.66-.5,.99-.75,.99Z"/><path class="cls-22" d="M773.83,1011.02v-2.96h56.33c0,58.77,0,117.53,0,176.3-.75,.53-1.49,1.52-2.24,1.52-17.28,.09-34.57,.07-51.85,.05-.42,0-.85-.32-1.27-.49-.32-.36-.93-.72-.93-1.08-.04-57.78-.04-115.56-.04-173.34Z"/><path class="cls-14" d="M59.3,711.57V358.75h2.96c0,117.04,0,234.08,.04,351.12,0,.37,.56,.74,1.07,1.38,1.17,.09,2.58,.3,3.98,.31,16.3,.02,32.59,.01,48.89,.02,1.36,0,2.04,.88,2.35,2.96,3.64,3.9,4.07,8.78,4.09,13.74,.14,29.42,.16,58.83-.02,88.25-.03,4.88,.02,9.91-4.07,13.64-18.26,0-36.51,0-54.77,0-.52-.76-1.5-1.51-1.5-2.27-.07-35.53-.06-71.05-.08-106.58,0-1.91-.11-3.86-.48-5.73-.22-1.11-1.34-1.41-2.47-1.06v-2.96Z"/><path class="cls-1" d="M121.56,355.79H62.26c0-37.86,0-75.72,.03-113.58,0-.4,.4-.81,.62-1.21,.38-.28,.75-.8,1.13-.81,19.18-.04,38.35-.03,57.53-.03,7.48,9.54,3.94,20.75,4.53,31.28,.47,8.31,.37,16.69-.17,25.03,.64,14.25,.32,28.51,.19,42.77-.05,5.84,.21,11.94-4.55,16.56Z"/><path class="cls-21" d="M299.45,1248.21h118.6c7.5,18.86,7.03,37.78,.41,56.73-39.67,1.44-79.34,2.22-119-.4-7.35-18.78-7.35-37.56,0-56.33Z"/><path class="cls-22" d="M240.16,118.6c0-18.19,0-36.39,.04-54.58,0-.37,.53-.75,.82-1.12,.4-.21,.81-.61,1.21-.61,38.84-.03,77.69-.03,116.53-.03,7.62,18.91,6.97,37.85,.23,56.83-3.62,3.07-8.03,3.55-12.47,3.52-30.42-.18-60.82,1.14-91.24,.59-5.45-.1-10.82-.65-15.12-4.62Z"/><path class="cls-22" d="M833.13,892.43c-.34-1.11-.06-2.15,1.03-2.45,1.34-.37,2.78-.49,4.18-.5,17.04-.03,34.08-.02,51.13-.02,0,39,0,78.01,0,117.01-.75,.53-1.49,1.51-2.25,1.52-17.28,.09-34.56,.07-51.84,.05-.42,0-.85-.32-1.27-.48-.33-.36-.94-.72-.94-1.08-.04-38.02-.04-76.03-.04-114.05Z"/><path class="cls-22" d="M1008.06,711.57c0,39,0,78.01,0,117.01-.75,.53-1.49,1.51-2.25,1.52-17.28,.09-34.56,.07-51.84,.05-.42,0-.85-.32-1.27-.49-.33-.36-.94-.72-.94-1.08-.04-38.02-.04-76.03-.04-114.05-.75-.66-1-1.32-.75-1.98,.25-.66,.5-.99,.75-.99,17.84-7.85,36.06-5.08,54.29-1.92,.68,.63,1.36,1.27,2.04,1.92Z"/><path class="cls-22" d="M714.54,62.26c37.86,0,75.71,0,113.57,.03,.4,0,.81,.4,1.21,.61,.28,.37,.81,.75,.81,1.12,.04,18.19,.04,36.38,.04,54.57-2.94,3.14-6.82,3.93-10.81,3.96-32.08,.24-64.16,.64-96.24-.22-2.47-.07-4.86-.78-9.68-3.84-4.19-17.44-6.23-36.71,1.1-56.23Z"/><path class="cls-22" d="M951.73,240.16c18.19,0,36.38,0,54.57,.04,.38,0,.75,.53,1.12,.81,.21,.4,.61,.81,.61,1.21,.03,37.86,.03,75.71,.03,113.57-18.78,6.67-37.56,6.62-56.33,0-3.64-3.9-4.07-8.78-4.09-13.73-.14-29.41-.16-58.82,.02-88.23,.03-4.9,.12-9.89,4.08-13.67Z"/><path class="cls-22" d="M477.35,1423.14h237.19c18.78-7.35,37.56-7.35,56.33,0v2.96H296.49c.34-1.11,.06-2.15-1.03-2.45-1.34-.37-2.78-.49-4.18-.5-17.04-.03-34.08-.02-51.13-.02,0-18.21,0-36.42,.04-54.64,0-.37,.56-.74,.86-1.11,11.96-.76,35.4-.88,57.22-.29,.35,.35,.81,.64,1.01,1.06,.2,.4,.16,.93,.16,1.4,0,17.23,0,34.46,.04,51.68,0,.39,.47,.77,.73,1.16,.39,.24,.78,.69,1.18,.69,38.89,.03,77.77,.03,116.66,.03,19.77-7.33,39.53-7.33,59.3,0Z"/><path class="cls-6" d="M358.75,118.6V59.3h352.82v2.96c-.7,.64-1.41,1.28-2.1,1.93-7.44,3.71-15.47,2.7-23.31,2.71-79.54,.09-159.09,.02-238.63,.1-7.31,0-14.87-1.14-22.02,2.96-7.47,15.33,2.76,33.62-7.47,48.63-18.84,7.86-38.03,5.23-57.24,1.92-.69-.63-1.37-1.27-2.05-1.92Z"/><path class="cls-6" d="M240.16,118.6h118.6c-2.5,9.6-10.73,6.6-16.92,7.33-11.55,1.37-23.5-1.83-35.12,2.53-6.67,15.91,1.61,33.66-7.3,50.76-18.28,5.34-37.58,4.05-56.97,1.24-1.77-.8-3.15-2.02-4.19-3.65-3.42-18.55-5.89-37.07,1.9-55.24v-2.96Z"/><path class="cls-6" d="M121.56,296.49v-59.3c19.94-7.4,39.9-7.17,59.89-.13,7.81,19.95,3.94,39.83,1.88,61.34-22.12,2.95-41.97,6.94-61.76-1.91Z"/><path class="cls-4" d="M892.43,830.17v-58.08c1.12-.72,1.51-1.19,1.89-1.19,18.15-.04,36.29-.03,54.44-.03v59.3c-18.78,7.35-37.56,7.35-56.33,0Z"/><path class="cls-18" d="M892.43,830.17h56.33c0,19.24,0,38.49,0,57.73-.75,.52-1.5,1.5-2.26,1.5-17.27,.09-34.54,.07-51.81,.05-.43,0-.85-.31-1.28-.47-.33-.36-.95-.71-.95-1.07-.05-18.26-.04-36.51-.04-54.77v-2.96Z"/><path class="cls-18" d="M180.86,237.19h-59.3c0-18.15,0-36.29,.03-54.44,0-.39,.47-.77,.72-1.16,.39-.24,.78-.7,1.17-.7,19.13-.03,38.25-.03,57.38-.03,.61,.65,1.21,1.3,1.83,1.95,3.86,17.48,3.87,34.96,.02,52.45-.61,.65-1.23,1.29-1.85,1.93Z"/><path class="cls-17" d="M477.35,1423.14h-59.3c0-18.15,0-36.29,.03-54.44,0-.39,.47-.77,.72-1.16,.39-.24,.78-.7,1.17-.7,19.13-.04,38.25-.03,57.38-.03v56.33Z"/><path class="cls-22" d="M299.45,1248.21v56.33h-59.3c0-18.15,0-36.29,.03-54.44,0-.39,.47-.77,.72-1.16,.39-.24,.78-.7,1.17-.7,19.13-.04,38.25-.03,57.38-.03Z"/><path class="cls-18" d="M240.16,121.56v56.33c-19.77,6.64-39.53,6.47-59.3,0,0-18.15,0-36.29,.03-54.44,0-.39,.47-.77,.72-1.16,.39-.24,.78-.7,1.17-.7,19.13-.03,38.25-.03,57.38-.03Z"/><path class="cls-17" d="M418.05,1304.55v-56.33h59.3v56.33c-19.77,2.32-39.53,2.32-59.3,0Z"/><path class="cls-2" d="M892.43,180.86c18.14,0,36.28,0,54.43,.03,.39,0,.78,.46,1.16,.71,.25,.39,.71,.78,.71,1.16,.04,18.14,.03,36.28,.03,54.43-18.58,8.23-37.34,3.16-58.08,2.77-2.24-21.01-6.31-40.03,1.75-59.1Z"/><path class="cls-2" d="M773.83,1367.35c14.31-.7,41.21-.72,55.13-.09,.47,.42,1.15,.74,1.15,1.07,.05,17.75,.05,35.5,.05,53.25-.75,.52-1.51,1.49-2.26,1.5-17.26,.09-34.51,.07-51.77,.05-.43,0-.86-.29-.99-.34-.58-.51-1.26-.84-1.26-1.16-.05-17.75-.05-35.5-.05-54.27Z"/><path class="cls-2" d="M833.13,121.56c18.14,0,36.28,0,54.43,.03,.39,0,.78,.46,1.16,.71,.25,.39,.71,.78,.71,1.16,.04,18.14,.03,36.28,.03,54.43-18.58,8.23-37.34,3.16-58.08,2.77-2.24-21.01-6.31-40.03,1.75-59.1Z"/><path class="cls-12" d="M770.87,1423.14h-56.33v-56.33c18.14,0,36.28,0,54.43,.03,.39,0,.78,.46,1.16,.71,.25,.39,.71,.78,.71,1.16,.04,18.14,.03,36.28,.03,54.43Z"/><path class="cls-2" d="M830.17,1304.55c-18.19,0-36.38,0-54.58-.04-.38,0-.75-.53-1.12-.81-.21-.4-.61-.81-.61-1.21-.03-17.67-.03-35.34-.03-53.14,3.75-2.3,7.74-.74,11.5-1.07,3.42-.3,6.88-.06,10.32-.06h33.18c.76,1.01,1.29,1.38,1.29,1.76,.04,18.19,.04,36.38,.04,54.58Z"/><path class="cls-12" d="M714.54,1304.55v-56.33c18.14,0,36.28,0,54.43,.03,.39,0,.78,.46,1.16,.71,.25,.39,.71,.78,.71,1.16,.04,18.14,.03,36.28,.03,54.43-18.78,2.38-37.56,2.38-56.33,0Z"/><path class="cls-22" d="M714.54,1304.55h56.33v2.96H299.45v-2.96h415.08Z"/><path d="M714.54,1185.95h56.33v2.96H299.45v-2.96c9.58-7.26,20.74-4.08,31.28-4.54,9.28-.4,18.6-.41,27.89,.18,20.02-.49,40.05-.48,60.08-.02,93.06-.89,186.12-.27,279.18-.31,5.93,0,11.88,.36,16.65,4.69Z"/><path class="cls-6" d="M1011.02,358.75v352.82h-2.96c-7.33-19.77-7.33-39.53,0-59.3v-237.19c-7.85-17.84-5.07-36.06-1.92-54.29,.63-.68,1.27-1.36,1.92-2.04h2.96Z"/><path class="cls-6" d="M714.54,62.26c0,18.19,0,36.38,.04,54.57,0,.38,.53,.75,.81,1.12,.4,.21,.81,.61,1.21,.61,37.86,.03,75.71,.03,113.57,.03v2.96c-.68,.63-1.37,1.25-2.05,1.89-18.16,5.12-36.7,1.63-55.07,2.42-15.05,.71-30.1,.32-45.14,.21-5.77-.04-11.79,.19-16.34-4.53v-2.96c-7.35-18.78-7.35-37.56,0-56.33h2.96Z"/><path class="cls-6" d="M833.13,121.56c0,18.14,0,36.28,.03,54.43,0,.39,.46,.78,.71,1.16,.39,.25,.78,.71,1.16,.71,18.14,.04,36.28,.03,54.43,.03v2.96c-.68,.62-1.35,1.24-2.02,1.87-18.08,4.35-36.23,3.28-54.41,.66-2.73-1.24-4.6-3.28-5.7-6.05-1.68-18.72-5.4-37.56,2.84-55.78h2.96Z"/><path class="cls-6" d="M951.73,240.16v115.63h-2.96c-7.05-8.4-4.16-18.5-4.5-27.93-.37-10.15-.5-20.34,.19-30.49,.81-18.38-2.73-36.96,2.4-55.17,.63-.68,1.27-1.36,1.91-2.04h2.96Z"/><path class="cls-6" d="M892.43,180.86c0,18.14,0,36.28,.03,54.43,0,.39,.46,.78,.71,1.16,.39,.25,.78,.71,1.16,.71,18.14,.04,36.28,.03,54.43,.03v2.96c-17.76,8.52-36.34,3.71-54.65,3.39-1.88-.47-3.57-1.3-5.12-2.46-1.27-1.46-2.16-3.12-2.73-4.97-.75-18.52-5.26-37.27,3.21-55.27h2.96Z"/><path class="cls-6" d="M180.86,177.89h59.3c.18,.93,.37,1.85,.56,2.78-.68,.65-1.37,1.31-2.04,1.97-19.4,3.61-38.77,6.13-57.81-1.79v-2.96Z"/><path class="cls-6" d="M951.73,355.79h56.33v2.96c-18.78,7.35-37.56,7.35-56.33,0v-2.96Z"/><path class="cls-4" d="M951.73,711.57v2.96h-2.96c.39-2.36,.6-2.58,2.96-2.96Z"/><path d="M358.75,1544.7h59.3c97.11,0,194.21,0,291.32,.02,.42,0,.84,.33,1.26,.51,.32,.36,.91,.72,.91,1.09,.05,18.24,.04,36.48,.04,54.71-116.86,0-233.73,0-350.59-.02-.42,0-.84-.32-1.26-.5-.32-.36-.92-.72-.92-1.08-.05-18.24-.04-36.49-.04-54.73Z"/><path class="cls-9" d="M655.24,1541.74h-177.89c-7.35-18.78-7.35-37.56,0-56.33h177.89c7.35,18.78,7.35,37.56,0,56.33Z"/><path class="cls-19" d="M477.35,1485.4v56.33h-59.3c0-18.15,0-36.29,.03-54.44,0-.39,.47-.77,.72-1.16,.39-.24,.78-.7,1.17-.7,19.13-.03,38.25-.03,57.38-.03Z"/><path class="cls-11" d="M655.24,1541.74v-56.33c18.26,0,36.51,0,54.77,0,.52,.75,1.5,1.51,1.5,2.26,.09,17.27,.07,34.54,.05,51.81,0,.43-.31,.85-.47,1.28-.36,.33-.71,.95-1.07,.95-18.26,.05-36.51,.04-54.77,.04Z"/><path class="cls-14" d="M296.49,1011.02h-59.3c.35-1.13,.05-2.18-1.06-2.48-1.36-.36-2.83-.47-4.25-.47-15.3-.03-30.59-.01-45.89-.03-1.41,0-2.82-.2-4-.29-.52-.62-1.1-.98-1.1-1.35-.04-37.99-.04-75.99-.04-113.98,18.5-7.92,37.53-3.88,56.44-2.5,7.92,4.45,7.21,12.34,7.32,19.57,.36,24.12,.04,48.24,.19,72.36,.04,6.3-.91,12.84,3.34,19.39,9.86,3.96,20.84,1.16,31.41,2.41,6.19,.74,14.45-2.25,16.92,7.37Z"/><path class="cls-1" d="M237.19,892.43h-59.3c.34-1.12,.05-2.16-1.04-2.46-1.35-.37-2.8-.48-4.2-.49-16.61-.03-33.22-.02-49.46-.02-1.33-.8-1.65-1.61-1.65-2.64,.02-17.13,.02-34.26,.01-51.39,0-1.31-.89-1.99-2.96-2.31v-118.6h2.96c7.4,9.37,3.96,20.41,4.51,30.77,.43,8.18,.46,16.42-.19,24.62,1,17.53-1.48,35.25,1.76,52.95,11.22,4.62,22.15,2.16,32.77,2.84,7.78,.5,15.99-.49,21.78,6.58,6.9,15.81-.18,33.14,5.21,49.84,15.5,7.11,33.07-1.17,48.62,5.75,1.67,1.19,2.05,2.71,1.16,4.55Z"/><path class="cls-13" d="M889.46,240.16h2.96c5.95,7.15,4.02,15.77,4.51,23.95,.49,8.21-1.37,16.64,2.38,25.15,15.55,7.51,34.12-2.89,49.44,7.23v120.01c1.02,1.09,2.01,2.16,2.91,3.11v171.9c-.66,1.03-1.46,1.46-2.46,1.46-17.78,0-35.57,0-53.35-.03-1.09,0-1.98,.03-2.67,.75-.26,.39-.73,.78-.73,1.16-.04,18.73-.03,37.47-.03,55.74-.84,1.45-1.66,1.7-2.73,1.7-17.78-.03-35.57,0-53.35-.06-1.11,0-1.98,.04-2.61,.9-.21,.41-.5,.8-.59,1.23-.1,.47-.02,.98-.02,1.48v51.87c0,.49,.05,1-.02,1.48-.06,.45-.26,.88-.4,1.31-.35,.35-.7,1-1.05,1-117.56,.05-235.12,.06-352.68,.02-.37,0-.73-.58-1.12-.92-1.05-3.31-.4-6.74-.49-10.12-.11-3.95-.03-7.9-.03-11.85v-10.37c0-3.95,.07-7.91-.02-11.85-.08-3.39,.49-6.82-.1-8.94-1.91-2.42-3.13-3.96-4.18-5.3h-53.67q-1.31-3.03-1.31-54.61c-1.25-1.3-2.59-2.71-3.92-4.1-3.39-.95-6.82-.38-10.21-.46-3.95-.1-7.9-.02-11.85-.02h-10.37c-3.95,0-7.91,.08-11.85-.02-3.38-.09-6.81,.55-10.12-.49-.34-.39-.92-.76-.92-1.12-.04-97.8-.04-195.6-.04-293.38,.82-.5,1.61-1.4,2.4-1.41,17.29-.08,34.58-.05,51.87-.08,1.4,0,2.8-.23,3.97-.33,.5-.67,1.03-1.04,1.03-1.42,.04-18.75,.04-37.49,.04-55.94,.77-1.26,1.58-1.61,2.61-1.61,17.78,.02,35.57,0,53.35,.05,1.1,0,1.98-.03,2.64-.81,.23-.4,.67-.79,.67-1.19,.03-18.73,.03-37.45,.03-55.59,.9-1.6,1.73-1.78,2.82-1.77,17.78,.04,35.57,.01,53.35,.07,1.12,0,1.98-.04,2.62-1.04,1.05-3.27,.39-6.69,.49-10.08,.11-3.95,.03-7.9,.03-11.85v-10.37c0-3.95-.07-7.91,.02-11.85,.08-3.39-.48-6.82,.44-10.15,.38-.36,.73-.98,1.09-.98,57.79-.04,115.59-.04,173.38-.04h62.26c8.21,18.19,4.47,36.99,2.89,55.69-.7,1.8-1.84,3.29-3.36,4.48-34.99,1.93-70.01,.3-105.03,.77-15.8,.21-31.6-.06-47.4,.09-5.85,.05-11.9-.64-17.77,3.35-6.93,16.14,2.25,35.1-6.71,51.61-16.56,9.06-35.48,.12-55.03,8.12-.18,53.15-.46,107.11,.26,160.56,12.41,6.73,23.98,3.57,35.07,4.2,19.04,1.07,22.94,4.95,23.82,24.2,.49,10.7-1.96,21.71,3.87,34.84,53.03,.44,107,.48,160.77-.08,8.44-18.45-.62-37.38,8.09-54.65,15.86-9.24,34.76-.38,51.32-6.43,5.1-6.2,3.78-13.36,3.8-20.1,.14-41.97,0-83.94,.13-125.91,.03-7.79-1.11-15.92,3.97-22.91,19.05-5.1,38.05-6.18,56.94,.76Z"/><path class="cls-15" d="M240.16,180.86v-2.96c19.15,0,38.3,0,57.45-.03,.38,0,.77-.49,1.15-.75,.23-.39,.67-.79,.67-1.18,.03-17.66,.03-35.32,.03-52.83,.7-1.08,1.49-1.54,2.47-1.54,17.19,0,34.37,.01,51.56-.02,1.41,0,2.87-.11,4.22-.48,1.1-.3,1.39-1.34,1.05-2.47h59.3c0,19.26,0,38.52,0,57.77-.77,.51-1.54,1.46-2.31,1.46-16.79,.08-33.58,.05-50.37,.09-1.9,0-3.88-.51-5.68,.51-.33,.38-.9,.75-.91,1.12-.04,18.75-.04,37.5-.04,56.11-.69,1.07-1.49,1.53-2.48,1.53-17.28,0-34.57,0-51.85,.02-1.4,0-2.79,.24-3.94,.35-.49,.69-.99,1.08-1,1.46-.04,38.49-.03,76.98-.03,115.18-.77,1.26-1.58,1.61-2.6,1.61-17.78-.02-35.55,0-53.33-.04-1.09,0-1.98,.03-2.65,.8-.24,.39-.69,.79-.69,1.18-.03,97.75-.03,195.49-.03,292.95,.77,1.25,1.57,1.61,2.6,1.61,17.28-.02,34.57-.01,52.09-.01,1.28,1.21,2.68,2.54,4.02,3.81,.22,.51,.52,.92,.56,1.35,.08,.98,.02,1.97,.02,2.96v106.66c0,.49-.06,1,.02,1.48,.07,.44,.28,.87,.39,1.19,.41,.43,.75,1.1,1.09,1.1,17.78,.05,35.55,.04,53.37,.04,1.36,1.38,2.75,2.79,4.43,4.5,0,17.42,0,35.15,.03,52.89,0,.39,.47,.78,.72,1.17,.39,.24,.78,.7,1.18,.7,17.74,.04,35.48,.03,52.83,.03,1.75,1.7,3.16,3.07,4.54,4.41v54.89h-2.96c-3.49,3.22-7.79,4.01-12.31,4.04-30.51,.18-61.02,.29-91.53-.07-3.96-.05-7.86-.64-12.57-4.31-8.76-14.85,.11-33.79-6.6-50.98-16.32-8.09-35.17,1.31-51.6-6.54-5.73-5.95-4.39-13.57-4.77-20.75-.57-10.59,1.31-21.4-2.37-32.19-17.03-8.08-36.23,1.62-52.89-6.85-5.48-7.35-3.57-15.95-4.05-24.15-.54-9.21,1.37-18.64-2.44-27.86-7.75-5.78-16.87-3.06-25.44-3.74-9.11-.72-18.79,2-26.94-4.5V296.49h58.08c.72-1.13,1.18-1.52,1.18-1.91,.04-19.13,.03-38.26,.03-57.39,7.14-5.95,15.77-4.02,23.95-4.52,9.18-.56,18.57,1.5,28.07-2.3,7.55-15.63-2.85-34.2,7.28-49.51Z"/><path class="cls-15" d="M711.57,62.26v56.33H418.05V63.2c1.37-.58,1.79-.91,2.21-.91,97.11-.02,194.21-.02,291.32-.02Z"/><path class="cls-4" d="M1008.06,652.27v59.3h-56.33v-58.08c1.12-.72,1.51-1.19,1.89-1.19,18.15-.04,36.29-.03,54.44-.03Z"/><path class="cls-7" d="M951.73,358.75h56.33v56.33c-18.14,0-36.28,0-54.43-.03-.39,0-.78-.46-1.16-.71-.25-.39-.71-.78-.71-1.16-.04-18.14-.03-36.28-.03-54.43Z"/><path class="cls-3" d="M714.54,1185.95H418.05c-4.7-5.24-4.67-11.75-4.68-18.15-.13-67-.12-134.01,0-201.01,0-5.41,0-10.88,2.68-15.86,.66-.73,1.33-1.45,2-2.17,116.79,0,233.59,0,350.38,.02,.44,0,.88,.23,.85,.22,1.78,1.6,3.24,2.91,4.55,4.08v54.98c-19.2,0-38.4,0-57.6,.04-.37,0-.74,.56-1.11,.86-.2,.41-.56,.82-.56,1.23-.03,58.59-.02,117.18-.02,175.76Z"/><path class="cls-5" d="M358.75,1185.95h-59.3v-174.93c-2.98-4.65-4.58-9.69-4.62-15.25-.23-29.89-.27-59.77,.05-89.66,.05-4.9,.49-9.83,3.84-13.89,38.79-1.88,77.58-2.28,116.37,.21,1.11-.34,2.15-.06,2.45,1.03,.37,1.34,.49,2.78,.5,4.18,.03,17.04,.02,34.08,.02,51.13-6.69,5.72-14.85,4.33-22.64,4.69-9.72,.45-19.68-1.3-28.54,2.12-4.48,7.79-3.36,15.34-3.37,22.64-.1,61.7,0,123.4-.11,185.09-.01,7.79,1.07,15.95-4.65,22.64Z"/><path class="cls-5" d="M415.08,892.43h-115.63c-20.02,1.9-40.08,4.54-59.72-2.52-7.53-18.04-3.81-36.64-2.74-55.12,.64-1.83,1.7-3.36,3.16-4.62h54.96c1.21,1.33,2.54,2.78,4.34,4.74,0,17.46,0,35.58,0,53.21,.99,.77,1.36,1.31,1.73,1.31,37.97,.04,75.93,.04,113.9,.04v2.96Z"/><path class="cls-5" d="M121.56,711.57h54.65c1.22,1.14,2.62,2.44,3.9,3.64,.3,.54,.72,.94,.72,1.34,.03,18.11,.03,36.22,.03,54.32-1.27,1.43-2.82,2.46-4.62,3.1-18.33,.87-36.87,5.33-54.68-3.1v-59.3Z"/><path class="cls-20" d="M240.16,889.46h54.71c1,.96,2.01,2.02,3.14,2.93,.3,.24,.95,.04,1.45,.04v118.6h-2.96c.34-1.12,.05-2.17-1.05-2.47-1.35-.37-2.81-.48-4.22-.48-14.73-.03-29.46-.02-44.19-.02h-5.11c-1.65-.92-1.8-1.74-1.8-2.83,.04-35.35,.04-70.7,.01-106.06,0-1.9-.12-3.84-.49-5.69-.22-1.1-1.33-1.39-2.46-1.05v-2.96c.99-1.04,1.98-1.04,2.96,0Z"/><path class="cls-6" d="M240.16,180.86c0,18.15,0,36.29-.03,54.44,0,.39-.47,.77-.72,1.16-.39,.24-.78,.7-1.17,.7-19.13,.03-38.25,.03-57.38,.03v-56.33h59.3Z"/><path class="cls-15" d="M358.75,1185.95c0-78.34,0-156.68,.02-235.02,0-.42,.35-.83,.53-1.25,.36-.31,.73-.89,1.09-.89,19.22-.04,38.43-.04,57.65-.04v237.19h-59.3Z"/><path class="cls-7" d="M773.83,177.89v-56.33h56.33v56.33c-18.78,7.48-37.56,7.27-56.33,0Z"/><path class="cls-13" d="M773.83,177.89h56.33c.39,2.36,.6,2.58,2.96,2.96,5.95,7.15,4.02,15.78,4.51,23.95,.49,8.21-1.37,16.64,2.36,25.17,15.56,7.47,34.13-2.91,49.46,7.21v2.96h-56.33c-19.95,3.39-39.71,2.23-61.02-.75-2.93-20.71-6.94-39.63,1.72-58.55v-2.96Z"/><path class="cls-7" d="M889.46,237.19c-18.14,0-36.28,0-54.43-.03-.39,0-.78-.46-1.16-.71-.25-.39-.71-.78-.71-1.16-.04-18.14-.03-36.28-.03-54.43h56.33v56.33Z"/><path class="cls-7" d="M948.76,296.49c-18.14,0-36.28,0-54.43-.03-.39,0-.78-.46-1.16-.71-.25-.39-.71-.78-.71-1.16-.04-18.14-.03-36.28-.03-54.43h56.33v56.33Z"/><path class="cls-20" d="M121.56,770.87h56.33c5.51,2.91,7.03,8.05,7.07,13.64,.13,14.7,1.54,29.45-1.02,44.1-.61,1.79-1.65,3.3-3.09,4.53-.49,0-1.14,.2-1.44-.04-1.12-.91-2.12-1.97-3.13-2.93h-53.62c-.67-1.23-1.08-1.62-1.08-2.02-.03-19.09-.03-38.18-.03-57.27Z"/><path class="cls-20" d="M180.86,833.13v-2.96c20.11-5.93,40.14-10.28,59.3,2.96v56.33h-2.96c-18.14,0-36.28,0-54.43-.03-.39,0-.78-.46-1.16-.71-.25-.39-.71-.78-.71-1.16-.04-18.14-.03-36.28-.03-54.43Z"/><path class="cls-8" d="M773.83,180.86c0,18.11,0,36.22,.03,54.32,0,.4,.42,.79,.64,1.19,.38,.27,.75,.78,1.13,.78,17.62,.04,35.24,.03,52.93,.03,1.01,.96,2.01,2.02,3.13,2.93,.29,.24,.95,.04,1.44,.04,0,57.77,0,115.53-.04,173.3,0,.36-.59,.73-1.02,1.22-3.72,.97-7.64,.24-11.51,.38-3.94,.14-7.9,.03-11.85,.03h-33.42c-.79,.83-1.42,1.18-1.42,1.53-.05,18.76-.04,37.52-.04,56.28-.78,.49-1.57,1.41-2.35,1.42-20.24,.08-40.48,.06-60.73,.06-35.55,0-71.1,0-106.64-.02-2.4,0-4.84,.36-7.01-.29-.51-.56-1.12-.92-1.12-1.28-.05-17.77-.04-35.54-.04-53.26-1.44-1.44-2.83-2.83-4.45-4.45-17.53,0-35.27,0-53.01-.03-.38,0-.77-.5-1.15-.76-.23-.4-.66-.8-.66-1.2-.03-58.22-.03-116.45-.03-174.24,.83-1.42,1.65-1.69,2.71-1.68,17.77,.03,35.55,0,53.32,.06,1.1,0,1.97-.04,2.62-.87,.22-.4,.6-.8,.62-1.21,.08-1.48,.03-2.96,.03-4.44,0-16.79,0-33.57,.02-50.36,0-.44,.23-.89,.35-1.33,.35-.35,.7-1,1.05-1,57.26-.05,114.52-.04,171.96-.04,.93,.88,1.94,1.94,3.07,2.86,.3,.24,.96,.04,1.45,.04Z"/><path class="cls-5" d="M240.16,833.13c-.49,0-1.15,.2-1.45-.04-1.13-.91-2.13-1.97-3.14-2.93h-54.71v-54.71c-.96-1-2.02-2.01-2.93-3.14-.24-.3-.04-.95-.04-1.45h57.62c1.22,1.14,2.62,2.44,3.9,3.64,.3,.54,.72,.94,.72,1.34,.03,18.11,.03,36.22,.03,54.32v2.96Z"/></g></g></svg>